<svg width="240" height="40" viewBox="0 0 240 40" fill="none" xmlns="http://www.w3.org/2000/svg">
<path d="M10.2958 9.92663C5.03978 9.92663 1.17578 13.3586 1.17578 19.1666C1.17578 24.9506 5.06378 28.4066 10.3198 28.4066C14.6638 28.4066 18.1438 25.8386 18.8398 21.6386L14.9518 21.3026C14.4718 23.7986 12.6478 25.1186 10.1998 25.1186C7.24778 25.1186 4.94378 23.0546 4.94378 19.1666C4.94378 15.5186 7.03178 13.2146 10.1758 13.2146C12.6478 13.2146 14.4478 14.5586 14.9518 17.1026L18.8158 16.7666C18.1678 12.5186 14.6398 9.92663 10.2958 9.92663Z" fill="#56B84E"/>
<path d="M24.8679 24.8546V10.1906H21.1479V28.1426H32.6919V24.8546H24.8679Z" fill="#56B84E"/>
<path d="M46.3676 13.4546V10.1906H34.8476V28.1426H46.3916V24.8546H38.5676V20.5346H45.3356V17.3426H38.5676V13.4546H46.3676Z" fill="#56B84E"/>
<path d="M65.7491 28.1426L58.0211 10.1906H54.9011L47.1971 28.1426H51.2531L52.7411 24.6866H60.2051L61.6691 28.1426H65.7491ZM54.0611 21.6626L56.4851 15.9266L58.9091 21.6626H54.0611Z" fill="#56B84E"/>
<path d="M81.9986 28.1426V10.1906H78.3026V21.3266L70.4066 10.1906H67.2626V28.1426H70.9826V17.0306L78.8546 28.1426H81.9986Z" fill="#56B84E"/>
<path d="M135.176 13.4546V10.1906H119.456V13.4546H125.48V28.1426H129.176V13.4546H135.176Z" fill="#56B84E"/>
<path d="M140.392 9.49463H136.888V28.1426H140.392V21.2546C140.392 19.7666 141.304 18.7586 142.696 18.7586C144.04 18.7586 144.88 19.6466 144.88 21.2306V28.1426H148.384V20.5586C148.384 17.3426 146.392 15.4946 143.536 15.4946C141.928 15.4946 140.92 16.1186 140.392 16.7906V9.49463Z" fill="#56B84E"/>
<path d="M152.949 9.56663C151.821 9.56663 150.861 10.5026 150.861 11.6786C150.861 12.8306 151.773 13.7666 152.949 13.7666C154.125 13.7666 155.061 12.8306 155.061 11.6786C155.061 10.5026 154.125 9.56663 152.949 9.56663ZM154.701 28.1426V15.7346H151.197V28.1426H154.701Z" fill="#56B84E"/>
<path d="M161.95 15.4946C158.83 15.4946 156.982 17.0306 156.982 19.4066C156.982 21.9506 158.734 22.5026 161.374 23.1746C163.174 23.6066 163.63 23.8466 163.63 24.5906C163.63 25.3106 163.03 25.7186 162.07 25.7186C160.87 25.7186 160.318 25.0946 160.27 24.1826L156.766 24.3746C157.03 26.9666 158.878 28.4066 162.046 28.4066C165.286 28.4066 167.134 26.7986 167.134 24.2786C167.134 22.0226 165.382 21.2546 162.91 20.6066C161.422 20.2226 160.486 20.1026 160.486 19.2386C160.486 18.5666 160.966 18.1826 161.902 18.1826C162.982 18.1826 163.438 18.8066 163.486 19.6946L166.966 19.5026C166.75 17.1986 165.094 15.4946 161.95 15.4946Z" fill="#56B84E"/>
<path d="M188.082 28.1426L194.346 10.1906H190.314L186.498 21.8546L182.658 10.1906H179.61L175.794 21.8546L171.954 10.1906H167.922L174.186 28.1426H177.33L181.146 16.7666L184.962 28.1426H188.082Z" fill="#56B84E"/>
<path d="M205.388 23.0546V21.6626C205.388 17.7986 203.036 15.4946 199.46 15.4946C195.764 15.4946 193.148 17.9426 193.148 21.9506C193.148 25.9346 195.764 28.4066 199.556 28.4066C202.46 28.4066 204.836 26.7266 205.268 24.3746L201.74 24.2066C201.476 25.0706 200.684 25.5746 199.46 25.5746C197.876 25.5746 196.94 24.5906 196.868 23.0546H205.388ZM199.436 18.2306C201.02 18.2306 201.788 19.2146 201.86 20.7266H196.868C196.964 19.1426 197.948 18.2306 199.436 18.2306Z" fill="#56B84E"/>
<path d="M219.252 23.0546V21.6626C219.252 17.7986 216.9 15.4946 213.324 15.4946C209.628 15.4946 207.012 17.9426 207.012 21.9506C207.012 25.9346 209.628 28.4066 213.42 28.4066C216.324 28.4066 218.7 26.7266 219.132 24.3746L215.604 24.2066C215.34 25.0706 214.548 25.5746 213.324 25.5746C211.74 25.5746 210.804 24.5906 210.732 23.0546H219.252ZM213.3 18.2306C214.884 18.2306 215.652 19.2146 215.724 20.7266H210.732C210.828 19.1426 211.812 18.2306 213.3 18.2306Z" fill="#56B84E"/>
<path d="M225.051 20.1506V9.49463H221.547V28.1426H225.051V24.8546L226.155 23.6546L229.395 28.1426H233.643L228.627 21.0386L233.307 15.7346H229.059L225.051 20.1506Z" fill="#56B84E"/>
<path d="M107.551 17.7622C107.551 16.5926 106.603 15.6445 105.434 15.6445H94.1396C92.9701 15.6445 92.022 16.5926 92.022 17.7622V26.5857C92.022 27.7553 92.9701 28.7034 94.1396 28.7034H105.434C106.603 28.7034 107.551 27.7553 107.551 26.5857V17.7622Z" fill="#4BB244"/>
<path d="M113.714 14.2327C113.714 8.87232 109.369 4.52686 104.008 4.52686H99.4202C94.0598 4.52686 89.7144 8.87233 89.7144 14.2327V19.1739C89.7144 20.3435 90.6625 21.2916 91.832 21.2916H108.95C111.581 21.2916 113.714 19.1583 113.714 16.5269V14.2327Z" fill="#96ED90"/>
<path d="M105.244 17.7622C105.244 16.5926 104.296 15.6445 103.126 15.6445H91.832C90.6625 15.6445 89.7144 16.5926 89.7144 17.7622V26.5857C89.7144 27.7553 90.6625 28.7034 91.832 28.7034H103.126C104.296 28.7034 105.244 27.7553 105.244 26.5857V17.7622Z" fill="#96ED90"/>
<path fill-rule="evenodd" clip-rule="evenodd" d="M98.3956 7.48937C99.4759 7.06544 100.993 6.67969 102.755 6.67969C102.95 6.67969 103.108 6.8377 103.108 7.03263C103.108 7.22755 102.95 7.38557 102.755 7.38557C101.094 7.38557 99.6642 7.74981 98.6534 8.14647C98.1476 8.34496 97.7524 8.54932 97.4894 8.71566C97.3626 8.79589 97.2738 8.86265 97.2198 8.91098C97.22 8.9141 97.2203 8.91728 97.2205 8.92052C97.2254 8.98525 97.2335 9.07392 97.2458 9.18257C97.2704 9.39993 97.3118 9.69517 97.3788 10.0366C97.5134 10.7223 97.7484 11.5807 98.1486 12.3675C98.5495 13.1555 99.1024 13.8453 99.8597 14.2364C100.607 14.6223 101.602 14.7426 102.946 14.3031C103.131 14.2425 103.33 14.3435 103.391 14.5288C103.451 14.714 103.35 14.9134 103.165 14.974C101.677 15.4609 100.481 15.3518 99.5358 14.8636C98.6006 14.3806 97.959 13.5516 97.5195 12.6875C97.0792 11.822 96.8279 10.8948 96.6861 10.1726C96.5452 9.45417 96.5083 8.91527 96.5083 8.81498C96.5083 8.68357 96.5725 8.58543 96.6026 8.54326C96.6411 8.48939 96.6886 8.44021 96.7356 8.39713C96.8309 8.30983 96.9597 8.2155 97.1121 8.11909C97.4193 7.92477 97.8558 7.70118 98.3956 7.48937Z" fill="#4BB244"/>
<path d="M113.714 16.7781C113.714 24.5688 111.561 27.4501 108.596 27.4501C106.002 27.4501 105.561 25.6473 105.561 24.9873C105.561 24.3274 107.272 22.6694 107.714 23.9732C107.873 24.4561 108.296 24.8424 108.843 24.6332C109.743 24.2952 110.008 20.6895 108.473 20.6895C105.437 20.6895 107.184 17.0034 108.173 15.4904C109.655 13.2208 113.714 13.1886 113.714 16.7781Z" fill="#96ED90"/>
<path d="M109.214 16.527C108.581 16.527 108.067 16.0135 108.067 15.38C108.067 14.7465 108.581 14.2329 109.214 14.2329C109.848 14.2329 110.361 14.7465 110.361 15.38C110.361 16.0135 109.848 16.527 109.214 16.527Z" fill="#4BB244"/>
</svg>
